<svg width="361" height="360" viewBox="0 0 361 360" fill="none" xmlns="http://www.w3.org/2000/svg">
<path d="M348.613 139.507C344.726 91.5846 342.783 67.6232 333.737 52.1206C307.836 7.73206 232.53 -2.82535 184.97 1.22316C121.297 6.64169 48.4556 43.245 16.3922 113.917C-12.7299 178.107 0.698436 250.765 44.579 298.296C125.019 385.426 290.949 369.869 331.483 312.696C347.659 289.879 348.825 253.435 350.539 199.9C351.362 174.13 349.755 153.594 348.613 139.507Z" fill="#F4F7FA"/>
<path d="M318.1 29.7471C313.983 26.3412 307.738 24.4863 302.46 24.1117C265.042 21.4602 259.581 99.6736 265.316 117.153C271.052 134.632 267.335 140.372 237.866 149.517C208.396 158.662 222.534 176.269 226.126 186.566C229.717 196.863 236.831 205.562 215.348 215.794C193.865 226.025 201.33 232.365 201.33 232.365C201.33 232.365 240.948 272.89 238.76 259.915C236.571 246.941 240.537 227.35 276.057 225.861C291.357 225.22 314.786 217.922 319.974 201.539C321.182 197.724 322.022 191.898 321.104 187.949C319.829 182.472 316.234 178.156 314.238 173.001C309.587 160.987 321.254 152.19 327.968 144.16C331.474 139.967 334.977 135.669 337.661 130.889C343.235 120.965 341.148 110.323 335.079 101.176C332.168 96.7898 328.125 92.1358 326.855 86.9033C325.491 81.2834 326.68 73.6046 327.003 67.823C327.257 63.2883 327.69 58.7716 327.434 54.2254C326.962 45.7718 324.982 35.4414 318.1 29.7471Z" fill="url(#paint0_linear_139_809)"/>
<g opacity="0.8">
<g opacity="0.8">
<path opacity="0.8" d="M198.213 255.109C197.957 255.202 197.666 255.093 197.536 254.845C197.395 254.574 197.499 254.24 197.77 254.098C197.936 254.011 214.615 245.238 233.221 230.789C250.365 217.475 272.7 196.482 281.743 172.076C289.296 151.694 296.183 117.998 300.641 79.6292C304.638 45.2233 305.269 19.7778 303.571 15.0545C303.467 14.7672 303.617 14.4503 303.904 14.3464C304.192 14.2425 304.508 14.3926 304.612 14.68C306.599 20.2062 305.338 48.7908 301.741 79.7575C297.275 118.211 290.364 151.999 282.782 172.461C273.646 197.117 251.149 218.271 233.885 231.675C215.203 246.181 198.451 254.991 198.284 255.079C198.26 255.09 198.237 255.1 198.213 255.109Z" fill="white"/>
</g>
<g opacity="0.8">
<path opacity="0.8" d="M300.581 86.2979C300.295 86.4006 300.004 86.321 299.899 86.035C299.76 85.6565 285.811 48.1283 267.824 39.6555C267.547 39.5259 267.435 39.2129 267.565 38.9358C267.695 38.6587 268.028 38.5497 268.303 38.6793C286.703 47.3458 300.362 84.0864 300.935 85.6501C301.04 85.9375 300.871 86.194 300.584 86.2967C300.582 86.2979 300.581 86.2979 300.581 86.2979Z" fill="white"/>
</g>
<g opacity="0.8">
<path opacity="0.8" d="M293.776 129.821C293.564 129.898 293.315 129.837 293.162 129.651C292.968 129.415 293.002 129.067 293.238 128.873C293.34 128.788 303.61 120.364 316.282 113.295C333.403 103.743 346.525 101.076 355.281 105.369C355.556 105.504 355.669 105.835 355.534 106.11C355.399 106.384 355.068 106.497 354.794 106.362C334.646 96.4848 294.345 129.392 293.941 129.726C293.891 129.768 293.834 129.8 293.776 129.821Z" fill="white"/>
</g>
<g opacity="0.8">
<path opacity="0.8" d="M249.067 218.778C249.01 218.798 248.951 218.809 248.888 218.81C248.583 218.815 248.332 218.571 248.326 218.265C248.324 218.104 248.039 202.003 244.669 185.037C241.579 169.481 235.198 149.997 222.35 145.507C222.061 145.406 221.909 145.09 222.01 144.803C222.11 144.514 222.427 144.362 222.714 144.463C233.428 148.206 241.18 161.79 245.757 184.836C249.145 201.899 249.43 218.086 249.432 218.248C249.437 218.492 249.283 218.7 249.067 218.778Z" fill="white"/>
</g>
<g opacity="0.8">
<path opacity="0.8" d="M271.93 192.764C271.705 192.845 271.446 192.773 271.298 192.572C271.115 192.325 271.168 191.979 271.413 191.798C273.195 190.481 315.224 159.582 331.615 162.532C331.916 162.586 332.115 162.875 332.061 163.175C332.007 163.477 331.72 163.677 331.418 163.622C315.492 160.755 272.503 192.368 272.071 192.687C272.027 192.722 271.979 192.746 271.93 192.764Z" fill="white"/>
</g>
</g>
<path d="M350.942 144.945C348.221 140.348 342.972 136.489 338.132 134.351C303.817 119.194 272.214 190.946 271.696 209.335C271.178 227.724 265.739 231.867 234.915 230.501C204.089 229.135 211.434 250.488 211.33 261.394C211.227 272.299 214.976 282.891 191.298 285.25C167.62 287.609 172.5 296.1 172.5 296.1C172.5 296.1 196.069 347.64 198.4 334.69C200.731 321.74 211.091 304.647 245.019 315.266C259.633 319.839 284.15 320.9 294.575 307.239C297.003 304.058 299.765 298.86 300.236 294.833C300.889 289.248 298.967 283.971 298.833 278.444C298.52 265.565 312.476 261.234 321.511 255.951C326.228 253.193 330.979 250.332 335.123 246.743C343.725 239.291 345.363 228.571 342.748 217.909C341.493 212.797 339.262 207.049 339.838 201.696C340.457 195.947 344.174 189.122 346.434 183.791C348.207 179.61 350.143 175.505 351.441 171.141C353.859 163.022 355.492 152.632 350.942 144.945Z" fill="url(#paint1_linear_139_809)"/>
<g opacity="0.8">
<g opacity="0.8">
<path opacity="0.8" d="M161.873 316.447C161.601 316.447 161.363 316.246 161.325 315.969C161.284 315.666 161.496 315.386 161.798 315.345C161.984 315.32 180.648 312.708 203.045 305.406C223.683 298.679 251.804 286.481 268.572 266.576C282.576 249.951 300.46 220.574 317.636 185.977C333.039 154.954 342.243 131.222 342.243 126.202C342.243 125.897 342.49 125.649 342.796 125.649C343.101 125.649 343.349 125.897 343.349 126.202C343.349 132.075 332.49 158.547 318.626 186.469C301.411 221.142 283.475 250.6 269.417 267.289C252.478 287.398 224.15 299.693 203.369 306.465C180.88 313.793 162.134 316.415 161.947 316.441C161.924 316.446 161.898 316.447 161.873 316.447Z" fill="white"/>
</g>
<g opacity="0.8">
<path opacity="0.8" d="M315.324 192.347C315.02 192.347 314.773 192.117 314.771 191.813C314.769 191.41 314.342 151.347 300.282 137.287C300.065 137.072 300.065 136.724 300.282 136.509C300.498 136.293 300.848 136.294 301.065 136.51C315.446 150.891 315.867 190.14 315.878 191.805C315.881 192.11 315.635 192.347 315.328 192.347C315.326 192.347 315.324 192.347 315.324 192.347Z" fill="white"/>
</g>
<g opacity="0.8">
<path opacity="0.8" d="M294.196 230.886C293.969 230.886 293.756 230.745 293.675 230.519C293.572 230.232 293.721 229.915 294.01 229.811C294.134 229.766 306.649 225.314 320.966 222.949C340.31 219.754 353.56 221.686 360.348 228.689C360.561 228.908 360.555 229.258 360.336 229.471C360.116 229.684 359.766 229.678 359.553 229.458C343.936 213.346 294.877 230.676 294.383 230.853C294.32 230.876 294.257 230.886 294.196 230.886Z" fill="white"/>
</g>
<g opacity="0.8">
<path opacity="0.8" d="M222.019 299.468C221.96 299.468 221.899 299.457 221.839 299.438C221.55 299.339 221.395 299.025 221.495 298.735C221.547 298.583 226.728 283.335 229.297 266.229C231.652 250.546 232.241 230.052 221.67 221.479C221.432 221.286 221.396 220.937 221.589 220.7C221.781 220.463 222.13 220.426 222.368 220.619C231.183 227.767 233.882 243.173 230.389 266.407C227.804 283.61 222.595 298.939 222.542 299.093C222.464 299.323 222.248 299.468 222.019 299.468Z" fill="white"/>
</g>
<g opacity="0.8">
<path opacity="0.8" d="M252.336 282.725C252.097 282.725 251.878 282.57 251.806 282.331C251.717 282.039 251.884 281.73 252.177 281.643C254.298 281.006 304.304 266.152 318.729 274.474C318.994 274.627 319.085 274.966 318.932 275.23C318.779 275.494 318.441 275.585 318.177 275.433C304.159 267.346 253.009 282.548 252.495 282.702C252.442 282.718 252.388 282.725 252.336 282.725Z" fill="white"/>
</g>
</g>
<path d="M235.915 15.686L235.52 18.5159C234.208 18.5762 232.918 18.7455 231.662 19.0277L230.592 16.3877C230.301 15.6681 229.476 15.3255 228.751 15.6244L224.214 17.4935C223.488 17.7924 223.134 18.6211 223.424 19.342L224.499 22.0153C223.399 22.7157 222.36 23.5085 221.393 24.3859L219.115 22.6182C218.499 22.141 217.606 22.2591 217.12 22.8825L214.072 26.7822C213.583 27.4069 213.687 28.3023 214.303 28.7808L216.59 30.5588C215.981 31.703 215.469 32.9114 215.056 34.1724L212.153 33.7914C211.373 33.6888 210.647 34.2417 210.531 35.0267L209.802 39.945C209.685 40.7326 210.224 41.4561 211.005 41.5587L213.917 41.941C213.951 43.2687 214.096 44.5746 214.354 45.8458L211.622 46.985C210.885 47.2915 210.524 48.1395 210.814 48.8771L212.634 53.5028C212.925 54.2443 213.76 54.5945 214.499 54.2853L217.233 53.1411C217.92 54.2597 218.704 55.3142 219.574 56.2942L217.752 58.6597C217.26 59.2998 217.365 60.2157 217.988 60.7057L221.893 63.7691C222.518 64.2591 223.425 64.1359 223.916 63.4933L225.716 61.1432C226.865 61.7551 228.081 62.2643 229.35 62.671L228.941 65.6035C228.829 66.4065 229.377 67.1415 230.165 67.2442L235.094 67.8907C235.883 67.9946 236.611 67.4263 236.721 66.6233L237.119 63.7126C238.459 63.6549 239.777 63.4817 241.058 63.1931L242.14 65.8818C242.44 66.6284 243.28 66.9812 244.016 66.6695L248.614 64.7209C249.349 64.4092 249.699 63.5535 249.398 62.8095L248.316 60.14C249.439 59.4152 250.496 58.593 251.476 57.6835L253.723 59.4306C254.352 59.9194 255.252 59.7962 255.735 59.1561L258.745 55.1641C259.226 54.5265 259.107 53.617 258.48 53.1308L256.253 51.4042C256.86 50.2279 257.364 48.9848 257.764 47.6905L260.548 48.0561C261.329 48.1587 262.045 47.6007 262.146 46.8105L262.778 41.8794C262.88 41.0931 262.329 40.3721 261.55 40.2695L258.774 39.9052C258.716 38.5608 258.547 37.2421 258.262 35.9606L260.836 34.8831C261.56 34.5803 261.902 33.7439 261.602 33.0153L259.722 28.4691C259.421 27.743 258.593 27.3992 257.869 27.7007L255.279 28.7808C254.574 27.6737 253.776 26.6295 252.889 25.6636L254.601 23.4303C255.077 22.8081 254.96 21.9191 254.342 21.4432L250.474 18.471C249.856 17.9963 248.969 18.1131 248.492 18.7327L246.77 20.9686C245.629 20.3759 244.423 19.8833 243.164 19.4934L243.548 16.6853C243.653 15.9131 243.113 15.2037 242.34 15.1023L237.507 14.4686C236.738 14.3699 236.023 14.9125 235.915 15.686ZM218.879 38.6083C220.276 28.8898 229.195 22.0769 238.809 23.3379C248.424 24.5989 255.177 33.4681 253.885 43.1994C252.585 52.991 243.647 59.9373 233.927 58.6635C224.207 57.3884 217.474 48.3858 218.879 38.6083Z" fill="#D8DEE8"/>
<path d="M161.817 14.1517L161.206 18.5273C159.178 18.6196 157.182 18.8813 155.24 19.3175L153.586 15.2356C153.135 14.1221 151.861 13.5936 150.741 14.0554L143.725 16.9456C142.603 17.4087 142.055 18.6876 142.504 19.8049L144.167 23.9381C142.467 25.0208 140.86 26.2459 139.365 27.6043L135.837 24.8707C134.887 24.1331 133.505 24.3165 132.754 25.2786L128.041 31.3078C127.285 32.2737 127.445 33.6579 128.397 34.398L131.934 37.1483C130.992 38.9173 130.2 40.7863 129.561 42.7349L125.072 42.1461C123.868 41.9883 122.745 42.8427 122.564 44.0562L121.437 51.6619C121.256 52.8805 122.09 53.9979 123.298 54.1556L127.799 54.7457C127.853 56.7982 128.077 58.8186 128.477 60.7839L124.252 62.5451C123.113 63.0198 122.554 64.3295 123.003 65.4712L125.818 72.6228C126.268 73.7683 127.56 74.3109 128.701 73.8324L132.928 72.0635C133.99 73.7927 135.202 75.4231 136.548 76.9381L133.732 80.5953C132.97 81.5857 133.133 83.0019 134.098 83.7587L140.136 88.4948C141.102 89.2529 142.504 89.0618 143.265 88.0689L146.047 84.436C147.824 85.3827 149.706 86.1704 151.667 86.7989L151.033 91.3336C150.86 92.5754 151.707 93.7119 152.927 93.871L160.549 94.8703C161.768 95.0307 162.894 94.1519 163.063 92.9102L163.679 88.4101C165.752 88.3216 167.789 88.0535 169.77 87.6071L171.441 91.7647C171.906 92.9192 173.205 93.4644 174.343 92.982L181.452 89.97C182.588 89.489 183.13 88.1651 182.663 87.0132L180.991 82.8851C182.726 81.7653 184.36 80.4927 185.877 79.0868L189.351 81.7884C190.322 82.5439 191.713 82.3528 192.46 81.365L197.115 75.1935C197.858 74.2083 197.675 72.8011 196.705 72.0494L193.262 69.3811C194.201 67.5609 194.979 65.6392 195.598 63.6394L199.903 64.2038C201.111 64.3629 202.218 63.4995 202.375 62.2783L203.352 54.6534C203.509 53.436 202.657 52.3225 201.452 52.1647L197.16 51.6016C197.072 49.5235 196.81 47.4838 196.369 45.5032L200.351 43.8368C201.47 43.3686 202 42.0756 201.533 40.9493L198.625 33.9195C198.161 32.7971 196.879 32.266 195.762 32.7317L191.758 34.4006C190.668 32.6881 189.433 31.0743 188.064 29.5824L190.709 26.1291C191.445 25.1683 191.266 23.7931 190.308 23.0568L184.327 18.4618C183.371 17.7281 182 17.909 181.263 18.8672L178.599 22.3243C176.833 21.4084 174.969 20.6464 173.024 20.0422L173.618 15.7C173.781 14.5057 172.945 13.4102 171.751 13.2537L164.278 12.2736C163.087 12.1171 161.983 12.9574 161.817 14.1517ZM135.474 49.594C137.633 34.5673 151.425 24.033 166.29 25.9829C181.155 27.9327 191.595 41.6458 189.599 56.693C187.591 71.8313 173.771 82.5734 158.743 80.6018C143.714 78.6314 133.301 64.7105 135.474 49.594Z" fill="#D8DEE8"/>
<path d="M154.67 56.523L121.989 328.16C121.499 332.233 124.306 335.884 128.239 336.274L264.359 351.218C272.697 351.737 277.263 347.476 277.778 343.146L312.089 54.3499C312.601 50.0436 308.51 46.1426 300.136 46.1426L162.778 49.0353C158.8 49.1033 155.157 52.4719 154.67 56.523Z" fill="url(#paint2_linear_139_809)"/>
<path d="M148.543 56.0566L115.683 329.052C115.19 333.146 118.007 336.816 121.953 337.208L263.071 351.259C267.495 351.699 271.55 348.498 272.067 344.146L306.571 53.8579C307.085 49.5285 303.836 46.0496 299.363 46.1252L156.68 48.533C152.69 48.5985 149.033 51.985 148.543 56.0566Z" fill="url(#paint3_linear_139_809)"/>
<path d="M151.222 71.1125L120.764 324.234C120.304 328.058 122.942 331.48 126.635 331.839L259.352 344.741C263.465 345.141 267.234 342.153 267.716 338.101L299.603 69.9426C300.082 65.912 297.065 62.6499 292.91 62.6948L158.831 64.1225C155.099 64.161 151.679 67.3077 151.222 71.1125Z" fill="#D8DEE8"/>
<path d="M222.391 55.8671C222.217 57.3205 223.26 58.484 224.722 58.4647C226.186 58.4468 227.515 57.2512 227.689 55.7952C227.864 54.3393 226.817 53.1758 225.353 53.1976C223.889 53.2194 222.564 54.4149 222.391 55.8671Z" fill="url(#paint4_linear_139_809)"/>
<path d="M174.166 241.025C201.335 190.792 241.924 175.755 254.144 123.984C260.749 95.9997 256.249 69.2149 248.669 46.9789L299.364 46.1233C303.837 46.0476 307.086 49.5278 306.572 53.856L272.069 344.144C271.552 348.498 267.497 351.698 263.072 351.257L152.14 340.212C151.318 295.201 162.054 263.416 174.166 241.025Z" fill="white"/>
<path d="M14.564 84.8642C14.564 58.1718 37.848 36.5375 65.7899 36.54C92.9056 36.5426 114.305 57.0391 114.305 82.3192C114.305 107.599 92.9056 129.187 65.7899 130.574C37.8467 132.003 14.564 111.557 14.564 84.8642Z" fill="url(#paint5_linear_139_809)"/>
<path d="M17.5752 82.7353C17.5752 56.0429 40.1858 34.4086 67.3182 34.4111C93.6488 34.4137 114.43 54.9102 114.43 80.1903C114.43 105.47 93.6488 127.059 67.3182 128.445C40.1845 129.874 17.5752 109.426 17.5752 82.7353Z" fill="url(#paint6_linear_139_809)"/>
<g opacity="0.5">
<path opacity="0.5" d="M25.3164 82.5328C25.3164 60.107 44.312 41.9297 67.1086 41.9336C89.2304 41.9362 106.691 59.1564 106.691 80.3957C106.691 101.635 89.2317 119.772 67.1086 120.937C44.312 122.138 25.3164 104.959 25.3164 82.5328Z" fill="white"/>
</g>
<path opacity="0.5" d="M65.5407 45.3782C87.6625 45.3808 105.123 62.601 105.123 83.8403C105.123 88.8907 104.126 93.7614 102.324 98.2743C105.115 92.8404 106.693 86.7586 106.693 80.3947C106.693 59.1554 89.2339 41.9352 67.1108 41.9326C49.5288 41.9313 34.2174 52.7479 28.1279 67.9824C35.023 54.5887 49.3159 45.3769 65.5407 45.3782Z" fill="white"/>
<path d="M48.2075 77.0429V96.6158C48.2075 102.274 52.968 106.738 58.8227 106.586L73.3401 106.207C79.1242 106.056 83.7987 101.395 83.7987 95.7961V76.4297L48.2075 77.0429ZM61.5768 97.2777L64.2745 89.1024C63.1187 88.5059 62.3362 87.3309 62.3362 85.9622C62.3362 83.9533 64.0218 82.2921 66.0974 82.2536C68.1704 82.2138 69.8496 83.807 69.8496 85.8121C69.8496 87.1782 69.0696 88.3828 67.9177 89.0268L70.6051 97.0673L61.5768 97.2777Z" fill="white"/>
<path d="M79.6723 74.7327C78.1317 74.7583 76.8823 73.5666 76.8823 72.0696C76.8823 66.3163 72.0525 61.6982 66.0965 61.7752C60.12 61.8521 55.2415 66.6254 55.2415 72.4147C55.2415 73.9207 53.9754 75.1624 52.4116 75.1894C50.8466 75.215 49.5767 74.0143 49.5767 72.5057C49.5767 63.6942 57.0079 56.4413 66.0978 56.34C75.1389 56.2386 82.4573 63.2555 82.4573 71.9824C82.4573 73.4755 81.2117 74.707 79.6723 74.7327Z" fill="white"/>
<path d="M113.296 186.371C113.296 186.371 112.308 182.669 113.008 181.722C113.707 180.776 117.986 176.991 117.575 178.225C117.163 179.459 116.546 180.282 116.546 180.282C116.546 180.282 118.85 181.351 117.369 182.955C115.888 184.56 115.393 184.929 115.311 186.37C115.23 187.81 114.283 188.304 113.296 186.371Z" fill="url(#paint7_linear_139_809)"/>
<path d="M72.2023 346.177C72.2023 346.177 71.6789 349.379 71.7456 350.518C71.8123 351.657 84.4581 352.239 84.5851 351.386C84.7121 350.533 82.4955 349.175 80.9343 348.696C79.3731 348.216 74.8038 346.939 74.8038 346.939L72.2023 346.177Z" fill="url(#paint8_linear_139_809)"/>
<path d="M75.2708 342.985L74.868 346.967C74.868 346.967 73.3992 347.938 72.1048 347.189L71.457 342.855L75.2708 342.985Z" fill="url(#paint9_linear_139_809)"/>
<path d="M49.6383 351.368C49.6383 351.368 49.115 354.57 49.1817 355.709C49.2484 356.848 61.8942 357.431 62.0212 356.578C62.1494 355.725 59.9315 354.366 58.3703 353.888C56.8092 353.409 52.2398 352.13 52.2398 352.13L49.6383 351.368Z" fill="url(#paint10_linear_139_809)"/>
<path d="M52.7098 348.175L52.307 352.157C52.307 352.157 50.8382 353.128 49.5438 352.379L48.896 348.046L52.7098 348.175Z" fill="url(#paint11_linear_139_809)"/>
<path d="M72.9773 239.044C74.4384 242.008 75.9008 244.971 77.3619 247.934C78.537 264.845 79.1219 283.236 78.7461 302.902C78.4664 317.534 77.6852 331.394 76.5615 344.404C74.5795 344.313 72.5976 344.222 70.6157 344.131C67.7499 338.443 64.3672 329.827 64.0555 319.19C63.7309 308.095 67.0944 306.621 66.8815 295.998C66.6044 282.229 60.8305 278.555 57.7544 261.992C56.578 255.658 55.7866 247.385 56.7269 237.349C62.1441 237.914 67.5601 238.48 72.9773 239.044Z" fill="url(#paint12_linear_139_809)"/>
<path opacity="0.3" d="M56.7274 237.349C59.6522 237.654 62.577 237.959 65.503 238.265C70.7689 247.428 72.239 256.964 71.3141 261.183C70.0069 267.152 66.5485 269.063 66.7397 275.055C66.9282 280.984 70.4213 282.522 72.6367 289.51C74.1709 294.348 73.7655 298.797 72.8932 307.497C71.1358 325.021 66.9038 330.381 70.4482 336.127C71.4552 337.759 73.2704 339.703 76.8263 341.187C76.739 342.262 76.6531 343.34 76.562 344.403C74.5801 344.313 72.5982 344.221 70.6163 344.131C67.7505 338.443 64.3678 329.827 64.056 319.19C63.7315 308.095 67.095 306.621 66.882 295.998C66.605 282.229 60.8311 278.556 57.7549 261.994C56.5786 255.659 55.7859 247.387 56.7274 237.349Z" fill="url(#paint13_linear_139_809)"/>
<path d="M65.1127 244.38C62.3688 259.343 59.9456 275.356 58.0548 292.339C55.7714 312.845 54.5528 332.176 54.0743 350.124C51.8987 350.185 49.7243 350.247 47.5487 350.309C38.977 333.351 38.4537 321.855 39.689 314.37C40.1649 311.486 41.4593 305.83 41.7543 297.377C41.9596 291.485 41.5837 287 41.1142 281.61C40.0854 269.791 38.8359 267.212 38.6563 258.172C38.487 249.687 38.4524 245.395 40.8743 242.89C47.2549 236.287 63.8543 243.795 65.1127 244.38Z" fill="url(#paint14_linear_139_809)"/>
<path d="M112.159 185.799C113.606 185.698 115.052 185.598 116.499 185.497C119.911 199.288 117.464 212.665 109.762 217.585C97.7279 225.271 75.3624 210.79 70.516 195.02C68.3891 188.098 68.8727 178.11 73.1252 176.169C74.3054 175.631 76.1372 175.547 80.1049 177.774C91.9541 184.427 92.2658 197.001 98.2898 198.065C100.966 198.54 105.291 196.833 112.159 185.799Z" fill="url(#paint15_linear_139_809)"/>
<path d="M79.0265 250.969C81.111 247.511 78.4929 244.175 77.8976 237.624C77.2229 230.198 80.0835 228.961 82.9121 216.655C84.794 208.471 86.5988 200.614 84.4437 191.416C83.4111 187.009 81.6588 179.533 75.4706 175.922C72.2777 174.058 67.9175 174.245 59.3292 174.694C48.7076 175.249 43.3981 175.526 39.4369 177.612C38.857 177.918 26.809 184.471 25.979 195.154C25.135 206.027 36.9752 207.489 38.5543 221.988C39.2637 228.497 38.0001 238.508 37.1804 245C36.3941 251.234 35.8514 252.83 37.0829 254.719C40.0488 259.269 49.1271 257.972 67.2838 255.379C74.4059 254.361 77.4705 253.55 79.0265 250.969Z" fill="url(#paint16_linear_139_809)"/>
<path d="M51.4 219.654C50.6316 222.48 47.8711 224.591 45.9494 231.465C45.5351 232.949 42.5783 243.518 46.4125 246.12C48.6266 247.622 50.615 244.775 55.9899 244.403C65.303 243.759 69.7402 251.587 75.8245 249.449C76.8802 249.077 78.2733 248.286 79.6652 246.47C79.9422 248.107 79.8948 249.53 79.0276 250.97C77.4729 253.551 74.407 254.362 67.2849 255.379C49.1282 257.972 40.0499 259.269 37.084 254.718C35.8538 252.831 36.3952 251.234 37.1815 245C38.0012 238.506 39.2648 228.495 38.5554 221.988C36.9763 207.488 25.1348 206.027 25.9801 195.154C26.2059 192.248 27.2745 189.66 28.7048 187.406C43.7251 193.484 53.813 210.774 51.4 219.654Z" fill="url(#paint17_linear_139_809)"/>
<path d="M32.4302 241.041L35.4358 242.96C35.9758 242.337 37.2253 241.08 39.1751 240.651C41.3726 240.168 43.8958 240.862 43.9535 241.562C44.001 242.124 42.4642 242.691 42.2269 242.778C40.3091 243.486 38.8865 242.897 38.1117 243.668C37.8372 243.94 37.4959 244.448 36.7096 244.918C36.5031 245.041 36.2875 245.15 36.1734 245.195C34.8931 245.693 32.6983 243.464 32.5097 243.27L32.4302 241.041Z" fill="url(#paint18_linear_139_809)"/>
<path d="M41.3074 201.627C43.4817 196.42 44.9877 188.447 41.5537 176.608C18.9277 185.524 7.38896 206.659 11.8941 223.412C15.6078 237.224 29.1208 243.951 32.1354 245.368C32.8371 243.77 33.5388 242.175 34.2392 240.579C30.7461 236.689 26.8092 230.937 27.3659 224.373C28.1382 215.273 36.9061 212.167 41.3074 201.627Z" fill="url(#paint19_linear_139_809)"/>
<path d="M58.7719 163.982C58.7719 163.982 58.5936 167.94 57.3646 170.904C56.2537 173.583 50.4145 175.267 49.2304 175.865C48.0464 176.463 51.4484 178.211 54.8645 178.554C58.2806 178.897 68.0349 178.121 69.7937 176.827C71.5524 175.533 68.38 175.63 65.9427 174.735C63.5041 173.839 62.0943 169.071 62.5253 166.907C62.9564 164.742 58.7719 163.982 58.7719 163.982Z" fill="url(#paint20_linear_139_809)"/>
<path d="M64.1746 162.547C65.9475 160.805 66.195 160.603 66.3875 160.001C67.1623 157.586 65.2881 154.276 62.8303 153.461C62.702 153.419 61.0536 152.892 60.425 153.606C59.8901 154.213 60.6765 155.052 60.3032 156.223C59.953 157.319 59.0037 157.401 57.2424 158.838C55.7916 160.02 54.891 160.757 54.6832 161.792C54.2548 163.925 56.837 167.017 59.123 166.933C59.9453 166.902 60.1697 166.483 64.1746 162.547Z" fill="url(#paint21_linear_139_809)"/>
<path d="M59.3474 167.264C59.3474 167.264 61.2318 169.397 64.1014 168.691C66.6709 168.06 66.0153 162.162 64.1348 161.22C63.5075 160.906 62.3671 160.932 61.5102 161.345C61.0035 161.588 60.8623 161.842 60.0272 162.225C59.2576 162.577 59.0126 162.529 58.806 162.778C58.5469 163.088 58.4353 163.758 59.2473 165.371C58.6624 164.957 58.0325 164.87 57.6464 165.144C57.5848 165.188 57.4283 165.342 57.3603 165.543C57.1153 166.273 57.8747 167.016 59.3474 167.264Z" fill="url(#paint22_linear_139_809)"/>
<path d="M274.248 87.4024L274.912 90.9826L261.259 91.0147L142.78 91.2956C139.732 91.3033 136.929 93.8227 136.511 96.9233L108.228 285.947C107.807 289.076 112.676 293.852 115.706 294.085L168.269 298.125V298.061L246.894 304.092C246.895 304.092 246.897 304.092 246.898 304.092L247.088 304.172C250.445 304.431 253.525 301.995 253.961 298.69C253.961 298.689 253.961 298.704 253.962 298.703L280.45 96.8873C280.881 93.6136 277.625 87.3934 274.248 87.4024Z" fill="url(#paint23_linear_139_809)"/>
<path d="M251.282 294.756C250.849 298.062 247.77 300.532 244.413 300.274L112.896 290.176C109.867 289.944 107.759 287.219 108.18 284.091L133.891 93.0567C134.308 89.9562 137.111 87.4368 140.156 87.4278L272.416 87.0635C275.791 87.0545 278.185 89.7009 277.757 92.9746L251.282 294.756Z" fill="url(#paint24_linear_139_809)"/>
<path d="M253.029 189.699C252.813 191.336 251.284 192.557 249.614 192.496L133.864 188.271C132.336 188.216 131.261 186.958 131.471 185.394L133.747 168.527C133.957 166.964 135.352 165.907 136.881 165.949L252.733 169.167C254.405 169.213 255.589 170.394 255.375 172.03L253.029 189.699Z" fill="white"/>
<path d="M248.548 223.972C248.332 225.612 246.802 227.012 245.132 226.929L129.468 221.215C127.942 221.139 126.88 219.678 127.09 218.113L129.384 200.92C129.594 199.356 131.001 198.016 132.529 198.077L248.263 202.745C249.933 202.813 251.115 204.324 250.899 205.963L248.548 223.972Z" fill="white"/>
<path opacity="0.1" d="M255.385 171.962C255.11 171.874 254.815 171.825 254.501 171.816L138.646 168.6C137.118 168.556 135.723 169.616 135.515 171.174L133.235 188.042C133.23 188.086 133.226 188.127 133.223 188.17C132.048 187.839 131.292 186.726 131.469 185.392L133.749 168.524C133.956 166.966 135.352 165.905 136.88 165.95L252.734 169.166C254.378 169.214 255.556 170.359 255.385 171.962Z" fill="url(#paint25_linear_139_809)"/>
<path opacity="0.1" d="M250.924 205.583C250.645 205.472 250.345 205.406 250.027 205.393L134.296 200.724C132.768 200.662 131.358 202.005 131.15 203.569L128.853 220.763C128.84 220.874 128.831 220.98 128.831 221.091C127.656 220.711 126.909 219.447 127.086 218.113L129.384 200.919C129.592 199.355 131 198.012 132.529 198.073L248.261 202.743C249.806 202.809 250.928 204.099 250.924 205.583Z" fill="url(#paint26_linear_139_809)"/>
<path d="M217.786 251.75C218.127 249.163 216.298 246.779 213.697 246.629L153.823 243.191C151.343 243.049 149.053 245.137 148.716 247.657L146.245 266.28C145.908 268.804 147.628 271.218 150.107 271.387L209.95 275.482C212.549 275.66 214.943 273.465 215.285 270.874L217.786 251.75Z" fill="url(#paint27_linear_139_809)"/>
<path d="M222.308 126.276C221.519 132.23 218.461 137.603 214.112 141.555C209.426 145.818 203.253 148.412 196.834 148.288C190.447 148.164 185.071 145.374 181.619 141.017C178.435 137 176.875 131.648 177.657 125.795C179.282 113.617 190.47 103.773 202.748 103.803C215.142 103.83 223.947 113.891 222.308 126.276Z" fill="url(#paint28_linear_139_809)"/>
<path d="M210.368 119.508C209.66 124.842 204.737 129.116 199.392 129.052C194.068 128.988 190.34 124.643 191.044 119.348C191.75 114.054 196.623 109.783 201.949 109.808C207.299 109.832 211.077 114.174 210.368 119.508Z" fill="white"/>
<path d="M214.113 141.555C209.427 145.817 203.254 148.411 196.835 148.287C190.448 148.164 185.072 145.374 181.62 141.016C185.571 135.511 192.088 131.85 199.008 131.94C205.966 132.03 211.575 135.886 214.113 141.555Z" fill="white"/>
<path opacity="0.4" d="M277.756 92.9746L251.282 294.756C250.849 298.06 247.574 300.517 244.218 300.259L165.227 294.194C161.475 290.352 158.385 285.742 156.18 280.209C155.097 277.496 154.304 274.568 153.777 271.49C152.311 262.969 152.879 253.284 155.018 243.778C156.662 236.459 159.241 229.234 162.541 222.715C165.181 217.503 168.286 212.738 171.753 208.733C174.249 205.85 176.95 203.05 179.797 200.304C183.231 196.989 186.881 193.754 190.646 190.548C199.419 183.073 208.813 175.765 217.51 168.048C237.578 150.245 253.86 130.353 249.942 101.97C249.816 101.075 248.594 94.2292 247.031 87.1328L272.22 87.0635C275.594 87.0545 278.185 89.7022 277.756 92.9746Z" fill="white"/>
<defs>
<linearGradient id="paint0_linear_139_809" x1="241.443" y1="259.503" x2="335.137" y2="6.45584" gradientUnits="userSpaceOnUse">
<stop offset="0.00359712" stop-color="#E38DDD"/>
<stop offset="1" stop-color="#9571F6"/>
</linearGradient>
<linearGradient id="paint1_linear_139_809" x1="172.085" y1="234.52" x2="353.822" y2="234.52" gradientUnits="userSpaceOnUse">
<stop stop-color="#FF9085"/>
<stop offset="1" stop-color="#FB6FBB"/>
</linearGradient>
<linearGradient id="paint2_linear_139_809" x1="218.723" y1="191.677" x2="272.367" y2="197.529" gradientUnits="userSpaceOnUse">
<stop stop-color="#444B8C"/>
<stop offset="0.9964" stop-color="#26264F"/>
</linearGradient>
<linearGradient id="paint3_linear_139_809" x1="171.458" y1="56.4572" x2="304.104" y2="508.04" gradientUnits="userSpaceOnUse">
<stop stop-color="#444B8C"/>
<stop offset="0.9964" stop-color="#26264F"/>
</linearGradient>
<linearGradient id="paint4_linear_139_809" x1="221.163" y1="45.3333" x2="377.058" y2="467.549" gradientUnits="userSpaceOnUse">
<stop stop-color="#FFC444"/>
<stop offset="0.9964" stop-color="#F36F56"/>
</linearGradient>
<linearGradient id="paint5_linear_139_809" x1="-1140.85" y1="1220.09" x2="-1034.21" y2="1119.54" gradientUnits="userSpaceOnUse">
<stop stop-color="#311944"/>
<stop offset="1" stop-color="#893976"/>
</linearGradient>
<linearGradient id="paint6_linear_139_809" x1="33.5939" y1="110.84" x2="119.042" y2="33.2978" gradientUnits="userSpaceOnUse">
<stop stop-color="#FF9085"/>
<stop offset="1" stop-color="#FB6FBB"/>
</linearGradient>
<linearGradient id="paint7_linear_139_809" x1="120.169" y1="178.267" x2="103.236" y2="195.502" gradientUnits="userSpaceOnUse">
<stop stop-color="#FFC444"/>
<stop offset="0.9964" stop-color="#F36F56"/>
</linearGradient>
<linearGradient id="paint8_linear_139_809" x1="78.1979" y1="341.98" x2="78.3405" y2="303.745" gradientUnits="userSpaceOnUse">
<stop stop-color="#AA80F9"/>
<stop offset="0.9964" stop-color="#6165D7"/>
</linearGradient>
<linearGradient id="paint9_linear_139_809" x1="74.4099" y1="354.267" x2="72.5893" y2="334.51" gradientUnits="userSpaceOnUse">
<stop stop-color="#FFC444"/>
<stop offset="0.9964" stop-color="#F36F56"/>
</linearGradient>
<linearGradient id="paint10_linear_139_809" x1="55.6545" y1="341.897" x2="55.7971" y2="303.661" gradientUnits="userSpaceOnUse">
<stop stop-color="#AA80F9"/>
<stop offset="0.9964" stop-color="#6165D7"/>
</linearGradient>
<linearGradient id="paint11_linear_139_809" x1="51.5643" y1="356.372" x2="49.7436" y2="336.614" gradientUnits="userSpaceOnUse">
<stop stop-color="#FFC444"/>
<stop offset="0.9964" stop-color="#F36F56"/>
</linearGradient>
<linearGradient id="paint12_linear_139_809" x1="73.7191" y1="254.712" x2="59.7041" y2="326.364" gradientUnits="userSpaceOnUse">
<stop stop-color="#311944"/>
<stop offset="1" stop-color="#893976"/>
</linearGradient>
<linearGradient id="paint13_linear_139_809" x1="80.7126" y1="289.749" x2="59.6566" y2="291.437" gradientUnits="userSpaceOnUse">
<stop stop-color="#311944"/>
<stop offset="1" stop-color="#893976"/>
</linearGradient>
<linearGradient id="paint14_linear_139_809" x1="69.0673" y1="293.711" x2="37.1024" y2="296.273" gradientUnits="userSpaceOnUse">
<stop stop-color="#311944"/>
<stop offset="1" stop-color="#893976"/>
</linearGradient>
<linearGradient id="paint15_linear_139_809" x1="94.3155" y1="188.208" x2="70.6664" y2="340.088" gradientUnits="userSpaceOnUse">
<stop stop-color="#AA80F9"/>
<stop offset="0.9964" stop-color="#6165D7"/>
</linearGradient>
<linearGradient id="paint16_linear_139_809" x1="44.0172" y1="354.918" x2="32.579" y2="508.201" gradientUnits="userSpaceOnUse">
<stop stop-color="#AA80F9"/>
<stop offset="0.9964" stop-color="#6165D7"/>
</linearGradient>
<linearGradient id="paint17_linear_139_809" x1="5.12918" y1="302.654" x2="68.2582" y2="194.519" gradientUnits="userSpaceOnUse">
<stop stop-color="#AA80F9"/>
<stop offset="0.9964" stop-color="#6165D7"/>
</linearGradient>
<linearGradient id="paint18_linear_139_809" x1="27.5089" y1="227.887" x2="40.8232" y2="245.873" gradientUnits="userSpaceOnUse">
<stop stop-color="#FFC444"/>
<stop offset="0.9964" stop-color="#F36F56"/>
</linearGradient>
<linearGradient id="paint19_linear_139_809" x1="16.0713" y1="352.834" x2="4.63315" y2="506.117" gradientUnits="userSpaceOnUse">
<stop stop-color="#AA80F9"/>
<stop offset="0.9964" stop-color="#6165D7"/>
</linearGradient>
<linearGradient id="paint20_linear_139_809" x1="65.3173" y1="183.068" x2="52.4998" y2="167.121" gradientUnits="userSpaceOnUse">
<stop stop-color="#FFC444"/>
<stop offset="0.9964" stop-color="#F36F56"/>
</linearGradient>
<linearGradient id="paint21_linear_139_809" x1="55.5707" y1="177.211" x2="62.3642" y2="154.863" gradientUnits="userSpaceOnUse">
<stop stop-color="#444B8C"/>
<stop offset="0.9964" stop-color="#3E4177"/>
</linearGradient>
<linearGradient id="paint22_linear_139_809" x1="72.8957" y1="169.413" x2="53.7871" y2="160.908" gradientUnits="userSpaceOnUse">
<stop stop-color="#FFC444"/>
<stop offset="0.9964" stop-color="#F36F56"/>
</linearGradient>
<linearGradient id="paint23_linear_139_809" x1="108.203" y1="195.797" x2="280.489" y2="195.797" gradientUnits="userSpaceOnUse">
<stop stop-color="#311944"/>
<stop offset="1" stop-color="#893976"/>
</linearGradient>
<linearGradient id="paint24_linear_139_809" x1="212.947" y1="534.651" x2="192.404" y2="178.815" gradientUnits="userSpaceOnUse">
<stop offset="0.003597" stop-color="#F36F56"/>
<stop offset="1" stop-color="#FFC444"/>
</linearGradient>
<linearGradient id="paint25_linear_139_809" x1="131.443" y1="177.06" x2="255.401" y2="177.06" gradientUnits="userSpaceOnUse">
<stop offset="0.003597" stop-color="#F36F56"/>
<stop offset="1" stop-color="#FFC444"/>
</linearGradient>
<linearGradient id="paint26_linear_139_809" x1="127.062" y1="209.581" x2="250.924" y2="209.581" gradientUnits="userSpaceOnUse">
<stop offset="0.003597" stop-color="#F36F56"/>
<stop offset="1" stop-color="#FFC444"/>
</linearGradient>
<linearGradient id="paint27_linear_139_809" x1="187.942" y1="221.588" x2="160.253" y2="397.175" gradientUnits="userSpaceOnUse">
<stop offset="0.003597" stop-color="#F36F56"/>
<stop offset="1" stop-color="#FFC444"/>
</linearGradient>
<linearGradient id="paint28_linear_139_809" x1="197.051" y1="38.7704" x2="202.964" y2="214.858" gradientUnits="userSpaceOnUse">
<stop offset="0.003597" stop-color="#F36F56"/>
<stop offset="1" stop-color="#FFC444"/>
</linearGradient>
</defs>
</svg>
