<svg width="534" height="164" viewBox="0 0 534 164" fill="none" xmlns="http://www.w3.org/2000/svg">
<path d="M16.224 112.172L16.302 153.98H40.326L46.566 161H16.38L5.46 158.738V108.974L16.224 112.172ZM77.0969 131.594C73.6649 129.254 70.1029 129.618 66.4109 132.686C63.3429 135.286 61.2889 138.744 60.2489 143.06C59.1049 148 59.9889 151.718 62.9009 154.214C63.2649 154.526 63.6549 154.812 64.0709 155.072C66.1509 156.216 68.2829 156.476 70.4669 155.852C72.7029 155.228 74.6269 153.85 76.2389 151.718C77.9029 149.586 79.2029 147.324 80.1389 144.932C81.0749 142.488 81.3089 140.018 80.8409 137.522C80.3729 134.974 79.1249 132.998 77.0969 131.594ZM84.8969 132.218C86.4049 133.57 87.5749 135.208 88.4069 137.132C89.2389 139.004 89.7069 140.928 89.8109 142.904C89.9669 144.88 89.7849 146.882 89.2649 148.91C88.7969 150.938 88.0689 152.836 87.0809 154.604C86.0929 156.372 84.8449 157.958 83.3369 159.362C81.8809 160.714 80.2689 161.728 78.5009 162.404C76.7329 163.132 74.7569 163.418 72.5729 163.262C70.4409 163.106 68.2569 162.43 66.0209 161.234C63.1089 159.674 60.2489 157.698 57.4409 155.306C55.2049 153.382 53.5409 151.224 52.4489 148.832C51.3569 146.388 50.8369 144.022 50.8889 141.734C50.9929 139.446 51.4349 137.158 52.2149 134.87C53.0469 132.582 54.2169 130.606 55.7249 128.942C57.2849 127.278 58.9749 125.874 60.7949 124.73C62.6149 123.534 64.5649 122.91 66.6449 122.858C68.7769 122.806 70.8309 123.248 72.8069 124.184C77.8509 126.836 81.8809 129.514 84.8969 132.218ZM125.835 126.29L124.977 130.502C119.933 129.358 116.605 128.89 114.993 129.098C112.445 129.41 110.443 130.658 108.987 132.842C107.531 134.974 107.011 137.028 107.427 139.004C107.531 139.472 108.727 139.42 111.015 138.848C113.303 138.276 115.799 137.704 118.503 137.132C121.207 136.508 122.949 136.404 123.729 136.82C127.317 138.692 129.735 141.162 130.983 144.23C132.231 147.298 132.361 150.236 131.373 153.044C130.437 155.8 128.487 158.192 125.523 160.22C122.559 162.248 118.997 163.262 114.837 163.262C111.405 163.262 108.207 162.326 105.243 160.454C102.331 158.53 98.8987 155.67 94.9467 151.874L96.3507 149.222C99.8867 151.874 103.631 153.668 107.583 154.604C111.535 155.488 115.201 155.124 118.581 153.512C122.013 151.9 124.301 148.936 125.445 144.62C125.497 144.412 125.263 144.334 124.743 144.386C124.171 144.438 122.741 144.776 120.453 145.4C113.225 147.324 108.623 147.896 106.647 147.116L105.945 146.726C103.085 144.542 100.771 142.15 99.0027 139.55C97.7027 137.782 97.1567 135.91 97.3647 133.934C97.6247 131.958 98.3007 130.164 99.3927 128.552C100.485 126.888 102.123 125.536 104.307 124.496C106.491 123.404 108.883 122.858 111.483 122.858C112.263 122.858 113.355 123.014 114.759 123.326C116.215 123.638 118.243 124.184 120.843 124.964C123.495 125.692 125.159 126.134 125.835 126.29ZM137.03 129.176L134.69 123.716H141.086V115.292L150.68 117.476V123.716H160.196L162.536 129.176H150.68V139.082C150.68 139.654 150.68 140.512 150.68 141.656C150.68 143.06 150.654 144.464 150.602 145.868C150.602 147.272 150.68 148.598 150.836 149.846C151.044 151.094 151.278 152.238 151.538 153.278C151.798 154.318 152.24 155.15 152.864 155.774C153.488 156.398 154.242 156.814 155.126 157.022C156.01 157.23 157.128 157.1 158.48 156.632C159.884 156.112 161.47 155.28 163.238 154.136L165.344 156.554C162.328 159.31 159.806 161.234 157.778 162.326C156.218 163.21 154.06 163.054 151.304 161.858C148.6 160.714 146.208 159.102 144.128 157.022C142.1 154.89 141.086 153.044 141.086 151.484V129.176H137.03Z" fill="#B30404"/>
<path d="M22.5333 9.18333L45.2833 64.325L71.6083 4.85L86.5583 9.18333L86.775 80.1417L71.6083 77V40.4917L53.7333 80.1417L39.65 77L39.7583 76.7833L39.65 76.8917L22.5333 34.3167L22.75 80.1417L7.58333 77V4.85L22.5333 9.18333ZM150.81 15.0333C143.588 10.2667 136.438 10.5194 129.36 15.7917C123.655 20.125 119.502 26.3722 116.902 34.5333C114.085 43.6333 114.374 51.4694 117.768 58.0417C119.43 61.3639 121.885 64 125.135 65.95C132.43 70.3556 139.58 69.85 146.585 64.4333C152.291 60.0278 156.371 53.7083 158.827 45.475C161.499 36.375 160.993 28.575 157.31 22.075C155.721 19.1861 153.555 16.8389 150.81 15.0333ZM167.71 20.3417C170.455 23.0139 172.513 26.1917 173.885 29.875C175.257 33.4861 175.907 37.2056 175.835 41.0333C175.835 44.7889 175.221 48.6167 173.993 52.5167C172.838 56.4167 171.213 60.0639 169.119 63.4583C167.096 66.7806 164.641 69.7778 161.752 72.45C158.863 75.05 155.757 77.0361 152.435 78.4083C149.113 79.7806 145.502 80.3583 141.602 80.1417C137.702 79.925 133.874 78.7333 130.118 76.5667C129.541 76.2056 128.493 75.6278 126.977 74.8333C125.532 74.0389 124.485 73.4972 123.835 73.2083C123.257 72.8472 122.355 72.3056 121.127 71.5833C119.899 70.7889 118.852 70.1028 117.985 69.525C117.191 68.875 116.18 68.1167 114.952 67.25C113.796 66.3111 112.605 65.3 111.377 64.2167C110.149 63.1333 108.849 61.9056 107.477 60.5333C104.805 58.0056 102.818 54.9722 101.518 51.4333C100.291 47.8944 99.7129 44.2472 99.7852 40.4917C99.9296 36.7361 100.58 32.9444 101.735 29.1167C102.891 25.2167 104.48 21.5694 106.502 18.175C108.596 14.7083 111.052 11.6389 113.868 8.96666C116.685 6.22222 119.646 4.09166 122.752 2.57499C125.93 0.986104 129.324 0.191659 132.935 0.191659C136.546 0.191659 140.085 1.13055 143.552 3.00833C152.941 8.06388 160.993 13.8417 167.71 20.3417ZM233.006 54.4667C232.356 53.2389 230.695 51.4694 228.023 49.1583C221.018 51.7583 213.001 52.0472 203.973 50.025L204.081 80.1417L188.915 77V4.525C195.487 2.71944 202.818 1.52777 210.906 0.949996C219.068 0.372217 224.195 0.805549 226.29 2.24999C228.456 4.19999 231.851 7.4861 236.473 12.1083C241.095 16.7306 244.309 20.0889 246.115 22.1833C247.993 24.4944 247.776 28.25 245.465 33.45C243.226 38.65 239.362 42.9472 233.873 46.3417C241.529 49.5917 245.681 51.5778 246.331 52.3C247.27 53.6722 247.92 55.2611 248.281 57.0667C248.715 58.8 248.931 60.2806 248.931 61.5083C248.931 62.7361 248.859 64.4694 248.715 66.7083C248.57 68.9472 248.498 70.4639 248.498 71.2583C248.498 71.9806 248.426 73.1 248.281 74.6167C248.209 76.0611 248.173 77.1444 248.173 77.8667C248.173 78.5889 248.281 79.4917 248.498 80.575C248.715 81.7306 249.076 82.6333 249.581 83.2833C250.087 83.9333 250.845 84.6194 251.856 85.3417C252.868 86.0639 254.168 86.6778 255.756 87.1833C250.051 88.3389 245.284 87.4 241.456 84.3667C237.701 81.4056 235.643 77.0361 235.281 71.2583C235.281 70.825 235.209 69.4889 235.065 67.25C234.993 65.0111 234.884 63.3861 234.74 62.375C234.668 61.3639 234.487 60.0639 234.198 58.475C233.909 56.8139 233.512 55.4778 233.006 54.4667ZM231.165 14.4917C226.904 10.4472 217.804 9.86944 203.865 12.7583L203.973 43.0917C209.029 43.1639 213.579 42.4417 217.623 40.925C221.74 39.3361 224.881 37.35 227.048 34.9667C229.215 32.5111 230.876 29.9472 232.031 27.275C233.187 24.6028 233.656 22.1111 233.44 19.8C233.223 17.4889 232.465 15.7194 231.165 14.4917ZM278.475 9.29167L278.692 80.1417L262.442 77V4.85L278.475 9.29167ZM359.079 9.18333V80.1417L343.913 77L308.813 27.3833L309.029 80.1417L293.863 77V4.85L308.813 9.18333L343.913 58.2583V4.85L359.079 9.18333ZM415.433 50.1333L406.766 40.3833H432.008L446.958 44.825C447.102 60.7861 447.175 69.8139 447.175 71.9083C447.175 77.6139 447.752 81.6222 448.908 83.9333C450.136 86.2444 452.627 87.9417 456.383 89.025C451.183 90.3972 446.236 89.5667 441.541 86.5333C436.919 83.5722 434.427 79.3111 434.066 73.75L433.741 68.875C431.141 71.1139 428.794 72.9556 426.7 74.4C424.605 75.7722 422.186 77 419.441 78.0833C416.769 79.1667 413.989 79.5639 411.1 79.275C408.283 79.0583 405.394 78.1194 402.433 76.4583C393.911 71.6194 387.736 67.4667 383.908 64C380.586 60.8944 377.95 57.5361 376 53.925C374.05 50.3139 372.858 46.775 372.425 43.3083C372.064 39.8417 372.136 36.3028 372.641 32.6917C373.219 29.0806 374.339 25.7222 376 22.6167C377.661 19.5111 379.575 16.55 381.741 13.7333C383.908 10.9167 386.364 8.56944 389.108 6.69166C391.925 4.81388 394.741 3.26111 397.558 2.03333C400.447 0.733328 403.408 0.119438 406.441 0.191659C409.475 0.263885 412.327 0.841664 415 1.925C427.927 7.84722 436.341 11.7833 440.241 13.7333L435.583 19.475C434.5 18.9694 429.408 16.9111 420.308 13.3C417.13 12 414.169 11.6389 411.425 12.2167C408.68 12.7944 405.972 13.9139 403.3 15.575C400.7 17.1639 398.461 19.3306 396.583 22.075C394.705 24.8194 393.044 27.7444 391.6 30.85C390.155 33.8833 389.216 37.1333 388.783 40.6C388.422 44.0667 388.422 47.3528 388.783 50.4583C389.216 53.5639 390.3 56.4889 392.033 59.2333C393.766 61.9778 396.077 64.1806 398.966 65.8417C401.422 67.2861 403.914 68.0083 406.441 68.0083C409.041 68.0083 411.461 67.5028 413.7 66.4917C415.939 65.4083 418.105 64 420.2 62.2667C422.366 60.5333 424.352 58.7278 426.158 56.85C427.964 54.9722 429.661 53.1667 431.25 51.4333C431.755 50.8556 432.116 50.4222 432.333 50.1333H415.433ZM497.06 9.29167L496.951 9.61666L525.985 80.1417L512.01 77L504.426 57.175L478.86 58.9083L471.06 80.1417L455.893 77L482.11 4.85L497.06 9.29167ZM491.643 23.9167L482.326 49.4833L500.96 48.1833L491.643 23.9167Z" fill="white"/>
<path d="M251.099 122.702C251.879 124.834 248.291 129.618 240.335 137.054L246.263 142.592C249.279 139.316 251.983 135.988 254.375 132.608L261.863 139.862C259.575 143.346 257.001 146.674 254.141 149.846C258.405 153.798 261.915 156.944 264.671 159.284L259.913 163.262L250.085 154.058C247.485 156.502 244.989 158.504 242.597 160.064C240.205 161.572 237.891 162.56 235.655 163.028C233.471 163.496 231.651 163.106 230.195 161.858C225.151 157.958 221.017 153.746 217.793 149.222C215.921 146.674 216.961 143.554 220.913 139.862C222.161 138.718 224.761 136.612 228.713 133.544C223.617 128.448 220.705 125.276 219.977 124.028C219.145 122.728 219.431 120.83 220.835 118.334C222.291 115.838 224.371 113.576 227.075 111.548C229.831 109.468 232.457 108.428 234.953 108.428C236.201 108.428 238.983 110.196 243.299 113.732C247.667 117.268 250.267 120.258 251.099 122.702ZM242.285 146.648L236.123 140.876C235.603 141.292 234.927 141.838 234.095 142.514C233.315 143.19 232.691 143.736 232.223 144.152C231.807 144.516 231.261 144.984 230.585 145.556C229.961 146.128 229.467 146.596 229.103 146.96C228.791 147.324 228.427 147.766 228.011 148.286C227.647 148.754 227.387 149.196 227.231 149.612C227.075 149.976 226.945 150.366 226.841 150.782C226.737 151.198 226.737 151.614 226.841 152.03C226.945 152.446 227.127 152.862 227.387 153.278C228.063 154.37 229.155 154.76 230.663 154.448C232.223 154.084 233.965 153.252 235.889 151.952C237.865 150.6 239.997 148.832 242.285 146.648ZM232.457 129.41C232.509 129.514 232.691 129.722 233.003 130.034C241.323 122.858 243.819 118.282 240.491 116.306C239.659 115.786 238.723 115.604 237.683 115.76C236.695 115.864 235.655 116.124 234.563 116.54C233.471 116.956 232.535 117.632 231.755 118.568C230.975 119.504 230.377 120.492 229.961 121.532C229.597 122.572 229.597 123.794 229.961 125.198C230.377 126.602 231.209 128.006 232.457 129.41Z" fill="white"/>
<path d="M345.219 140.33H319.635L319.713 163.262L308.793 161V109.052L308.871 109.13L308.793 108.974H342.099L348.339 115.994H319.557V133.31H338.979L345.219 140.33ZM378.449 131.594C375.017 129.254 371.455 129.618 367.763 132.686C364.695 135.286 362.641 138.744 361.601 143.06C360.457 148 361.341 151.718 364.253 154.214C364.617 154.526 365.007 154.812 365.423 155.072C367.503 156.216 369.635 156.476 371.819 155.852C374.055 155.228 375.979 153.85 377.591 151.718C379.255 149.586 380.555 147.324 381.491 144.932C382.427 142.488 382.661 140.018 382.193 137.522C381.725 134.974 380.477 132.998 378.449 131.594ZM386.249 132.218C387.757 133.57 388.927 135.208 389.759 137.132C390.591 139.004 391.059 140.928 391.163 142.904C391.319 144.88 391.137 146.882 390.617 148.91C390.149 150.938 389.421 152.836 388.433 154.604C387.445 156.372 386.197 157.958 384.689 159.362C383.233 160.714 381.621 161.728 379.853 162.404C378.085 163.132 376.109 163.418 373.925 163.262C371.793 163.106 369.609 162.43 367.373 161.234C364.461 159.674 361.601 157.698 358.793 155.306C356.557 153.382 354.893 151.224 353.801 148.832C352.709 146.388 352.189 144.022 352.241 141.734C352.345 139.446 352.787 137.158 353.567 134.87C354.399 132.582 355.569 130.606 357.077 128.942C358.637 127.278 360.327 125.874 362.147 124.73C363.967 123.534 365.917 122.91 367.997 122.858C370.129 122.806 372.183 123.248 374.159 124.184C379.203 126.836 383.233 129.514 386.249 132.218ZM425.861 123.794L435.611 125.978V163.34L425.861 161.156V157.256C421.701 161.52 417.853 163.522 414.317 163.262C412.653 163.158 409.689 161.234 405.425 157.49C401.161 153.746 398.899 151.146 398.639 149.69C398.431 148.338 398.327 139.706 398.327 123.794L407.999 125.978C407.739 143.866 407.869 153.356 408.389 154.448C409.429 155.904 410.989 156.372 413.069 155.852C415.201 155.332 417.541 153.85 420.089 151.406C422.689 148.962 424.613 146.284 425.861 143.372V123.794ZM455.573 125.9V129.098C460.201 124.782 464.257 122.728 467.741 122.936C469.405 123.04 472.317 125.12 476.477 129.176C480.689 133.18 482.925 135.91 483.185 137.366C483.393 138.718 483.497 147.35 483.497 163.262L473.825 161.078C474.137 143.242 474.007 133.804 473.435 132.764C472.499 130.996 470.939 130.476 468.755 131.204C466.623 131.88 464.387 133.128 462.047 134.948C459.759 136.768 457.601 138.9 455.573 141.344V163.262L445.433 161.078V123.716L455.573 125.9ZM503.05 157.022C507.158 159.102 512.124 158.088 517.948 153.98V132.062C516.44 131.178 514.334 130.58 511.63 130.268C509.498 130.06 507.418 131.152 505.39 133.544C503.362 135.884 501.828 138.614 500.788 141.734C499.748 144.854 499.358 147.948 499.618 151.016C499.93 154.032 501.074 156.034 503.05 157.022ZM517.948 105.62L527.698 107.804C528.01 142.904 528.01 160.61 527.698 160.922C527.438 160.974 526.086 161.26 523.642 161.78C521.25 162.352 519.716 162.69 519.04 162.794C518.364 162.898 516.96 163.054 514.828 163.262C512.748 163.47 511.084 163.47 509.836 163.262C508.64 163.054 507.132 162.69 505.312 162.17C503.492 161.702 501.75 161 500.086 160.064C497.122 158.452 494.834 156.476 493.222 154.136C491.61 151.796 490.752 149.404 490.648 146.96C490.544 144.516 490.83 142.046 491.506 139.55C492.182 137.002 493.248 134.688 494.704 132.608C496.212 130.476 497.798 128.604 499.462 126.992C501.178 125.38 502.972 124.236 504.844 123.56C506.716 122.832 508.38 122.702 509.836 123.17C510.512 123.378 511.214 123.69 511.942 124.106C512.722 124.47 513.346 124.808 513.814 125.12C514.334 125.432 515.036 125.9 515.92 126.524C516.856 127.148 517.532 127.59 517.948 127.85V105.62Z" fill="#0F8805"/>
</svg>
